<?xml version="1.0" encoding="UTF-8"?>
<svg width="657px" height="322px" viewBox="0 0 657 322" version="1.1" xmlns="http://www.w3.org/2000/svg" xmlns:xlink="http://www.w3.org/1999/xlink">
    <!-- Generator: Sketch 43.2 (39069) - http://www.bohemiancoding.com/sketch -->
    <title>Vertical Light</title>
    <desc>Created with Sketch.</desc>
    <defs></defs>
    <g id="Page-1" stroke="none" stroke-width="1" fill="none" fill-rule="evenodd">
        <g id="Vertical-Light">
            <path d="M91.4829,253.0646 L91.4829,251.0596 L92.8129,251.0596 C93.4279,251.0596 93.8799,251.1526 94.1689,251.3396 C94.4579,251.5266 94.6739,251.8856 94.8159,252.4196 L97.3569,263.0126 L97.6949,264.7516 L97.7419,264.7516 C97.8359,264.1896 97.9719,263.6086 98.1509,263.0086 L101.4539,251.1046 L103.5499,251.1046 L106.6259,263.0106 L106.9799,264.7516 L107.0249,264.7516 C107.0859,264.1736 107.1849,263.5926 107.3209,263.0076 L109.9179,252.4156 C110.0549,251.8686 110.2709,251.5056 110.5669,251.3276 C110.8639,251.1486 111.3159,251.0596 111.9229,251.0596 L113.2549,251.0596 L113.2549,253.0646 L112.9019,253.0646 C112.4699,253.0646 112.2039,253.2356 112.1049,253.5766 L108.4939,267.5306 L105.7939,267.5306 L103.1089,257.1046 L102.5329,254.8646 L102.4699,254.8646 C102.3009,255.6476 102.1019,256.3886 101.8739,257.0886 L98.8869,267.5306 L96.2369,267.5306 L92.6219,253.5756 C92.5309,253.2346 92.2689,253.0646 91.8359,253.0646 L91.4829,253.0646 Z" id="Fill-2" fill="#FA9339"></path>
            <path d="M117.706,258.6271 C116.917,259.4121 116.523,260.4051 116.523,261.6071 C116.523,262.8101 116.915,263.8111 117.7,264.6101 C118.485,265.4101 119.439,265.8111 120.561,265.8111 C121.699,265.8111 122.658,265.4141 123.439,264.6211 C124.22,263.8291 124.611,262.8241 124.611,261.6071 C124.611,260.4051 124.218,259.4121 123.433,258.6271 C122.648,257.8421 121.691,257.4491 120.561,257.4491 C119.446,257.4491 118.495,257.8421 117.706,258.6271 M116.044,266.0241 C114.807,264.8301 114.188,263.3561 114.188,261.6021 C114.188,259.8481 114.804,258.3831 116.036,257.2081 C117.268,256.0321 118.776,255.4441 120.561,255.4441 C122.358,255.4441 123.872,256.0321 125.101,257.2081 C126.331,258.3831 126.946,259.8481 126.946,261.6021 C126.946,263.3561 126.323,264.8301 125.079,266.0241 C123.834,267.2181 122.326,267.8151 120.556,267.8151 C118.785,267.8151 117.281,267.2181 116.044,266.0241" id="Fill-4" fill="#FA9339"></path>
            <path d="M129.1772,257.6437 L129.1772,255.7297 L131.3112,255.7297 C132.3112,255.7297 132.8142,256.1857 132.8222,257.0987 L132.8232,257.8327 L132.7662,258.6477 L132.8232,258.6477 C133.1182,257.7497 133.5962,257.0147 134.2572,256.4417 C134.9182,255.8687 135.6812,255.5807 136.5472,255.5807 L137.1622,255.6387 L137.1622,257.8717 C136.9572,257.8107 136.7292,257.7807 136.4782,257.7807 C135.7492,257.7807 135.0812,258.0297 134.4732,258.5277 C133.8662,259.0267 133.4292,259.7067 133.1642,260.5657 C132.9742,261.1747 132.8832,261.8827 132.8902,262.6897 L132.8902,267.5307 L130.6462,267.5307 L130.6462,258.1577 C130.6462,257.8147 130.4752,257.6437 130.1342,257.6437 L129.1772,257.6437 Z" id="Fill-6" fill="#FA9339"></path>
            <path d="M141.353,261.6642 C141.353,262.9162 141.658,263.9202 142.269,264.6762 C142.879,265.4332 143.68,265.8102 144.673,265.8102 C145.636,265.8102 146.444,265.4622 147.096,264.7662 C147.748,264.0682 148.074,263.0272 148.074,261.6412 C148.074,260.5052 147.784,259.5222 147.204,258.6932 C146.624,257.8642 145.795,257.4492 144.719,257.4492 C143.756,257.4492 142.955,257.8302 142.314,258.5912 C141.673,259.3522 141.353,260.3762 141.353,261.6642 M139.018,261.6642 C139.018,259.7852 139.517,258.2792 140.515,257.1452 C141.513,256.0122 142.801,255.4442 144.378,255.4442 C144.894,255.4442 145.367,255.5092 145.799,255.6372 C146.231,255.7662 146.576,255.9212 146.834,256.1032 C147.092,256.2862 147.317,256.4692 147.511,256.6512 C147.704,256.8342 147.838,256.9872 147.915,257.1112 L148.005,257.3102 L148.051,257.3102 C148.021,257.0682 148.006,256.7972 148.006,256.4942 L148.006,253.4902 C148.006,253.1452 147.838,252.9732 147.501,252.9732 L146.559,252.9732 L146.559,251.0602 L148.803,251.0602 C149.334,251.0602 149.716,251.1762 149.947,251.4082 C150.179,251.6412 150.295,252.0172 150.295,252.5342 L150.295,265.1052 C150.295,265.4462 150.463,265.6162 150.799,265.6162 L151.742,265.6162 L151.742,267.5302 L149.566,267.5302 C148.602,267.5302 148.12,267.1102 148.12,266.2692 L148.154,265.6672 L148.097,265.6672 C148.066,265.7272 148.024,265.8062 147.972,265.9002 C147.918,265.9952 147.784,266.1652 147.568,266.4112 C147.352,266.6582 147.111,266.8762 146.846,267.0652 C146.58,267.2552 146.214,267.4272 145.748,267.5822 C145.282,267.7372 144.776,267.8152 144.23,267.8152 C142.638,267.8152 141.371,267.2512 140.43,266.1212 C139.488,264.9922 139.018,263.5072 139.018,261.6642" id="Fill-8" fill="#FA9339"></path>
            <path d="M157.937,259.4317 L160.967,259.4317 C161.931,259.4317 162.692,259.1447 163.25,258.5717 C163.809,257.9977 164.088,257.2137 164.088,256.2197 C164.088,255.2397 163.812,254.4687 163.262,253.9077 C162.711,253.3447 161.954,253.0647 160.989,253.0647 L157.937,253.0647 L157.937,259.4317 Z M154.087,253.0647 L154.087,251.0597 L161.354,251.0597 C162.884,251.0597 164.126,251.5307 165.082,252.4717 C166.037,253.4127 166.514,254.6627 166.514,256.2197 C166.514,257.7767 166.03,259.0357 165.063,259.9947 C164.097,260.9557 162.859,261.4367 161.352,261.4367 L157.937,261.4367 L157.937,267.5307 L155.602,267.5307 L155.602,253.0647 L154.087,253.0647 Z" id="Fill-10" fill="#FA9339"></path>
            <path d="M168.4497,257.6437 L168.4497,255.7297 L170.5837,255.7297 C171.5837,255.7297 172.0867,256.1857 172.0947,257.0987 L172.0957,257.8327 L172.0387,258.6477 L172.0957,258.6477 C172.3907,257.7497 172.8687,257.0147 173.5297,256.4417 C174.1907,255.8687 174.9537,255.5807 175.8197,255.5807 L176.4347,255.6387 L176.4347,257.8717 C176.2297,257.8107 176.0017,257.7807 175.7507,257.7807 C175.0217,257.7807 174.3537,258.0297 173.7457,258.5277 C173.1387,259.0267 172.7017,259.7067 172.4367,260.5657 C172.2467,261.1747 172.1557,261.8827 172.1627,262.6897 L172.1627,267.5307 L169.9187,267.5307 L169.9187,258.1577 C169.9187,257.8147 169.7477,257.6437 169.4067,257.6437 L168.4497,257.6437 Z" id="Fill-12" fill="#FA9339"></path>
            <path d="M180.6938,260.2521 L186.9468,260.2521 C186.9168,259.3101 186.6358,258.5771 186.1048,258.0531 C185.5728,257.5291 184.9268,257.2681 184.1678,257.2681 C183.2798,257.2681 182.5218,257.5251 181.8958,258.0421 C181.2688,258.5581 180.8688,259.2951 180.6938,260.2521 M178.2678,261.6301 C178.2678,259.7771 178.8278,258.2831 179.9478,257.1481 C181.0678,256.0131 182.4828,255.4441 184.1908,255.4441 C185.7968,255.4441 187.0468,255.9671 187.9408,257.0111 C188.8358,258.0551 189.2828,259.3791 189.2828,260.9811 L189.2138,261.9031 L180.6028,261.9031 C180.6638,263.1051 181.0828,264.0561 181.8608,264.7581 C182.6398,265.4601 183.5718,265.8111 184.6578,265.8111 C185.2658,265.8111 185.8578,265.6941 186.4318,265.4611 C187.0058,265.2291 187.4268,265.0041 187.6928,264.7851 L188.1148,264.4481 L189.0998,266.0431 C188.9778,266.1681 188.7908,266.3311 188.5398,266.5331 C188.2888,266.7351 187.7658,266.9991 186.9698,267.3251 C186.1748,267.6511 185.3658,267.8151 184.5438,267.8151 C182.6908,267.8151 181.1818,267.2271 180.0158,266.0501 C178.8508,264.8721 178.2678,263.3991 178.2678,261.6301" id="Fill-14" fill="#FA9339"></path>
            <path d="M191.8476,265.753 L193.0206,264.233 C193.0516,264.279 193.1036,264.343 193.1806,264.422 C193.2556,264.502 193.4106,264.644 193.6456,264.845 C193.8806,265.047 194.1286,265.226 194.3896,265.382 C194.6516,265.538 194.9806,265.679 195.3786,265.804 C195.7766,265.93 196.1766,265.992 196.5776,265.992 C197.1716,265.992 197.6626,265.859 198.0506,265.593 C198.4396,265.326 198.6336,264.953 198.6336,264.474 C198.6336,264.085 198.4126,263.743 197.9716,263.446 C197.5296,263.149 196.9926,262.879 196.3606,262.635 C195.7286,262.392 195.0986,262.121 194.4726,261.824 C193.8466,261.527 193.3126,261.118 192.8706,260.597 C192.4296,260.075 192.2086,259.464 192.2086,258.764 C192.2086,257.691 192.6186,256.87 193.4396,256.3 C194.2616,255.73 195.3066,255.444 196.5776,255.444 C197.5186,255.444 198.4036,255.627 199.2336,255.991 C200.0636,256.357 200.4786,256.937 200.4786,257.734 L200.4786,258.851 L198.4286,258.851 L198.4286,258.27 C198.4286,257.943 198.2356,257.694 197.8516,257.524 C197.4666,257.353 197.0646,257.268 196.6466,257.268 C195.9606,257.268 195.4236,257.387 195.0356,257.627 C194.6476,257.867 194.4526,258.216 194.4526,258.672 C194.4526,259.075 194.6736,259.43 195.1156,259.734 C195.5566,260.039 196.0946,260.303 196.7256,260.527 C197.3586,260.752 197.9876,261.006 198.6136,261.287 C199.2406,261.569 199.7736,261.971 200.2156,262.492 C200.6566,263.014 200.8776,263.64 200.8776,264.371 C200.8776,265.405 200.4706,266.238 199.6576,266.869 C198.8446,267.5 197.8106,267.816 196.5556,267.816 C195.9646,267.816 195.4016,267.745 194.8676,267.607 C194.3336,267.468 193.8916,267.297 193.5436,267.094 C193.1956,266.891 192.8846,266.687 192.6106,266.48 C192.3376,266.274 192.1396,266.102 192.0186,265.967 L191.8476,265.753 Z" id="Fill-16" fill="#FA9339"></path>
            <path d="M203.3627,265.753 L204.5357,264.233 C204.5667,264.279 204.6187,264.343 204.6957,264.422 C204.7707,264.502 204.9257,264.644 205.1607,264.845 C205.3957,265.047 205.6437,265.226 205.9047,265.382 C206.1667,265.538 206.4957,265.679 206.8937,265.804 C207.2917,265.93 207.6917,265.992 208.0927,265.992 C208.6867,265.992 209.1777,265.859 209.5657,265.593 C209.9547,265.326 210.1487,264.953 210.1487,264.474 C210.1487,264.085 209.9277,263.743 209.4867,263.446 C209.0447,263.149 208.5077,262.879 207.8757,262.635 C207.2437,262.392 206.6137,262.121 205.9877,261.824 C205.3617,261.527 204.8277,261.118 204.3857,260.597 C203.9447,260.075 203.7237,259.464 203.7237,258.764 C203.7237,257.691 204.1337,256.87 204.9547,256.3 C205.7767,255.73 206.8217,255.444 208.0927,255.444 C209.0337,255.444 209.9187,255.627 210.7487,255.991 C211.5787,256.357 211.9937,256.937 211.9937,257.734 L211.9937,258.851 L209.9437,258.851 L209.9437,258.27 C209.9437,257.943 209.7507,257.694 209.3667,257.524 C208.9817,257.353 208.5797,257.268 208.1617,257.268 C207.4757,257.268 206.9387,257.387 206.5507,257.627 C206.1627,257.867 205.9677,258.216 205.9677,258.672 C205.9677,259.075 206.1887,259.43 206.6307,259.734 C207.0717,260.039 207.6097,260.303 208.2407,260.527 C208.8737,260.752 209.5027,261.006 210.1287,261.287 C210.7557,261.569 211.2887,261.971 211.7307,262.492 C212.1717,263.014 212.3927,263.64 212.3927,264.371 C212.3927,265.405 211.9857,266.238 211.1727,266.869 C210.3597,267.5 209.3257,267.816 208.0707,267.816 C207.4797,267.816 206.9167,267.745 206.3827,267.607 C205.8487,267.468 205.4067,267.297 205.0587,267.094 C204.7107,266.891 204.3997,266.687 204.1257,266.48 C203.8527,266.274 203.6547,266.102 203.5337,265.967 L203.3627,265.753 Z" id="Fill-18" fill="#FA9339"></path>
            <path d="M222.0756,265.753 L223.2486,264.233 C223.2796,264.279 223.3316,264.343 223.4086,264.422 C223.4836,264.502 223.6386,264.644 223.8736,264.845 C224.1086,265.047 224.3566,265.226 224.6176,265.382 C224.8796,265.538 225.2086,265.679 225.6066,265.804 C226.0046,265.93 226.4046,265.992 226.8056,265.992 C227.3996,265.992 227.8906,265.859 228.2786,265.593 C228.6676,265.326 228.8616,264.953 228.8616,264.474 C228.8616,264.085 228.6406,263.743 228.1996,263.446 C227.7576,263.149 227.2206,262.879 226.5886,262.635 C225.9566,262.392 225.3266,262.121 224.7006,261.824 C224.0746,261.527 223.5406,261.118 223.0986,260.597 C222.6576,260.075 222.4366,259.464 222.4366,258.764 C222.4366,257.691 222.8466,256.87 223.6676,256.3 C224.4896,255.73 225.5346,255.444 226.8056,255.444 C227.7466,255.444 228.6316,255.627 229.4616,255.991 C230.2916,256.357 230.7066,256.937 230.7066,257.734 L230.7066,258.851 L228.6566,258.851 L228.6566,258.27 C228.6566,257.943 228.4636,257.694 228.0796,257.524 C227.6946,257.353 227.2926,257.268 226.8746,257.268 C226.1886,257.268 225.6516,257.387 225.2636,257.627 C224.8756,257.867 224.6806,258.216 224.6806,258.672 C224.6806,259.075 224.9016,259.43 225.3436,259.734 C225.7846,260.039 226.3226,260.303 226.9536,260.527 C227.5866,260.752 228.2156,261.006 228.8416,261.287 C229.4686,261.569 230.0016,261.971 230.4436,262.492 C230.8846,263.014 231.1056,263.64 231.1056,264.371 C231.1056,265.405 230.6986,266.238 229.8856,266.869 C229.0726,267.5 228.0386,267.816 226.7836,267.816 C226.1926,267.816 225.6296,267.745 225.0956,267.607 C224.5616,267.468 224.1196,267.297 223.7716,267.094 C223.4236,266.891 223.1126,266.687 222.8386,266.48 C222.5656,266.274 222.3676,266.102 222.2466,265.967 L222.0756,265.753 Z" id="Fill-20" fill="#FA9339"></path>
            <path d="M235.114,253.417 L237.153,253.417 L237.153,251.06 L235.114,251.06 L235.114,253.417 Z M233.599,257.644 L233.599,255.73 L235.82,255.73 C236.352,255.73 236.733,255.844 236.965,256.073 C237.197,256.302 237.312,256.679 237.312,257.204 L237.312,265.101 C237.312,265.445 237.486,265.616 237.833,265.616 L238.805,265.616 L238.805,267.53 L236.57,267.53 C236.035,267.53 235.651,267.416 235.418,267.187 C235.185,266.958 235.068,266.581 235.068,266.056 L235.068,258.159 C235.068,257.816 234.897,257.644 234.556,257.644 L233.599,257.644 Z" id="Fill-22" fill="#FA9339"></path>
            <path d="M240.8315,257.5519 L240.8315,255.7299 L242.4375,255.7299 L242.4375,252.4939 L244.6355,252.4939 L244.6355,255.7299 L247.4835,255.7299 L247.4835,257.5519 L244.6355,257.5519 L244.6355,262.9669 C244.6355,263.5279 244.7215,263.9979 244.8925,264.3769 C245.0625,264.7559 245.2895,265.0279 245.5695,265.1909 C245.8505,265.3539 246.1145,265.4649 246.3615,265.5259 C246.6085,265.5859 246.8645,265.6159 247.1305,265.6159 L247.6655,265.5719 L247.6655,267.5759 C247.4605,267.6069 247.1985,267.6209 246.8795,267.6209 C246.5225,267.6209 246.1715,267.5989 245.8265,267.5539 C245.4805,267.5079 245.0925,267.3919 244.6615,267.2059 C244.2305,267.0209 243.8575,266.7759 243.5415,266.4729 C243.2265,266.1689 242.9555,265.7369 242.7295,265.1749 C242.5045,264.6139 242.3925,263.9619 242.3925,263.2179 L242.3925,257.5519 L240.8315,257.5519 Z" id="Fill-24" fill="#FA9339"></path>
            <path d="M252.517,260.2521 L258.77,260.2521 C258.74,259.3101 258.459,258.5771 257.928,258.0531 C257.396,257.5291 256.75,257.2681 255.991,257.2681 C255.103,257.2681 254.345,257.5251 253.719,258.0421 C253.092,258.5581 252.692,259.2951 252.517,260.2521 M250.091,261.6301 C250.091,259.7771 250.651,258.2831 251.771,257.1481 C252.891,256.0131 254.306,255.4441 256.014,255.4441 C257.62,255.4441 258.87,255.9671 259.764,257.0111 C260.659,258.0551 261.106,259.3791 261.106,260.9811 L261.037,261.9031 L252.426,261.9031 C252.487,263.1051 252.906,264.0561 253.684,264.7581 C254.463,265.4601 255.395,265.8111 256.481,265.8111 C257.089,265.8111 257.681,265.6941 258.255,265.4611 C258.829,265.2291 259.25,265.0041 259.516,264.7851 L259.938,264.4481 L260.923,266.0431 C260.801,266.1681 260.614,266.3311 260.363,266.5331 C260.112,266.7351 259.589,266.9991 258.793,267.3251 C257.998,267.6511 257.189,267.8151 256.367,267.8151 C254.514,267.8151 253.005,267.2271 251.839,266.0501 C250.674,264.8721 250.091,263.3991 250.091,261.6301" id="Fill-25" fill="#FA9339"></path>
            <path d="M263.6708,265.753 L264.8438,264.233 C264.8748,264.279 264.9268,264.343 265.0038,264.422 C265.0788,264.502 265.2338,264.644 265.4688,264.845 C265.7038,265.047 265.9518,265.226 266.2128,265.382 C266.4748,265.538 266.8038,265.679 267.2018,265.804 C267.5998,265.93 267.9998,265.992 268.4008,265.992 C268.9948,265.992 269.4858,265.859 269.8738,265.593 C270.2628,265.326 270.4568,264.953 270.4568,264.474 C270.4568,264.085 270.2358,263.743 269.7948,263.446 C269.3528,263.149 268.8158,262.879 268.1838,262.635 C267.5518,262.392 266.9218,262.121 266.2958,261.824 C265.6698,261.527 265.1358,261.118 264.6938,260.597 C264.2528,260.075 264.0318,259.464 264.0318,258.764 C264.0318,257.691 264.4418,256.87 265.2628,256.3 C266.0848,255.73 267.1298,255.444 268.4008,255.444 C269.3418,255.444 270.2268,255.627 271.0568,255.991 C271.8868,256.357 272.3018,256.937 272.3018,257.734 L272.3018,258.851 L270.2518,258.851 L270.2518,258.27 C270.2518,257.943 270.0588,257.694 269.6748,257.524 C269.2898,257.353 268.8878,257.268 268.4698,257.268 C267.7838,257.268 267.2468,257.387 266.8588,257.627 C266.4708,257.867 266.2758,258.216 266.2758,258.672 C266.2758,259.075 266.4968,259.43 266.9388,259.734 C267.3798,260.039 267.9178,260.303 268.5488,260.527 C269.1818,260.752 269.8108,261.006 270.4368,261.287 C271.0638,261.569 271.5968,261.971 272.0388,262.492 C272.4798,263.014 272.7008,263.64 272.7008,264.371 C272.7008,265.405 272.2938,266.238 271.4808,266.869 C270.6678,267.5 269.6338,267.816 268.3788,267.816 C267.7878,267.816 267.2248,267.745 266.6908,267.607 C266.1568,267.468 265.7148,267.297 265.3668,267.094 C265.0188,266.891 264.7078,266.687 264.4338,266.48 C264.1608,266.274 263.9628,266.102 263.8418,265.967 L263.6708,265.753 Z" id="Fill-26" fill="#FA9339"></path>
            <path d="M283.907,253.417 L285.946,253.417 L285.946,251.06 L283.907,251.06 L283.907,253.417 Z M282.392,257.644 L282.392,255.73 L284.613,255.73 C285.144,255.73 285.526,255.844 285.758,256.073 C285.99,256.302 286.105,256.679 286.105,257.204 L286.105,265.101 C286.105,265.445 286.279,265.616 286.626,265.616 L287.598,265.616 L287.598,267.53 L285.363,267.53 C284.828,267.53 284.444,267.416 284.211,267.187 C283.978,266.958 283.861,266.581 283.861,266.056 L283.861,258.159 C283.861,257.816 283.69,257.644 283.349,257.644 L282.392,257.644 Z" id="Fill-27" fill="#FA9339"></path>
            <path d="M289.6245,257.6437 L289.6245,255.7297 L291.7925,255.7297 C292.7775,255.7297 293.2695,256.1597 293.2695,257.0177 L293.2705,257.4577 L293.2135,258.1357 L293.2705,258.1357 C293.5825,257.4727 294.1105,256.8587 294.8555,256.2927 C295.6015,255.7277 296.5525,255.4447 297.7085,255.4447 C299.0835,255.4447 300.1005,255.8187 300.7575,256.5647 C301.4155,257.3107 301.7445,258.4417 301.7445,259.9567 L301.7445,265.1007 C301.7445,265.4457 301.9175,265.6167 302.2645,265.6167 L303.2365,265.6167 L303.2365,267.5307 L300.9925,267.5307 C300.4605,267.5307 300.0795,267.4157 299.8475,267.1867 C299.6155,266.9577 299.4995,266.5817 299.4995,266.0557 L299.4995,260.4847 C299.4995,259.5447 299.3495,258.8197 299.0495,258.3077 C298.7495,257.7957 298.1615,257.5407 297.2865,257.5407 C296.3805,257.5407 295.5895,257.8097 294.9125,258.3477 C294.2355,258.8857 293.7785,259.5797 293.5425,260.4277 C293.4065,260.8297 293.3375,261.3597 293.3375,262.0187 L293.3375,267.5307 L291.0935,267.5307 L291.0935,258.1577 C291.0935,257.8147 290.9225,257.6437 290.5815,257.6437 L289.6245,257.6437 Z" id="Fill-28" fill="#FA9339"></path>
            <path d="M312.3588,257.6437 L312.3588,255.7297 L314.5268,255.7297 C315.5118,255.7297 316.0038,256.1597 316.0038,257.0177 L316.0038,257.4577 L315.9808,258.1357 L316.0268,258.1357 C316.3238,257.4127 316.8488,256.7837 317.6018,256.2477 C318.3558,255.7127 319.1768,255.4447 320.0668,255.4447 C322.0168,255.4447 323.1918,256.3337 323.5938,258.1137 L323.6388,258.1137 C323.9808,257.3737 324.5378,256.7457 325.3098,256.2247 C326.0808,255.7057 326.9268,255.4447 327.8468,255.4447 C330.4308,255.4447 331.7238,256.9497 331.7238,259.9567 L331.7238,265.1007 C331.7238,265.4457 331.8968,265.6167 332.2438,265.6167 L333.2158,265.6167 L333.2158,267.5307 L330.9718,267.5307 C330.4398,267.5307 330.0588,267.4157 329.8268,267.1867 C329.5948,266.9577 329.4798,266.5817 329.4798,266.0557 L329.4798,260.4507 C329.4798,259.4887 329.3368,258.7477 329.0508,258.2287 C328.7658,257.7087 328.2158,257.4497 327.4018,257.4497 C326.6258,257.4497 325.9338,257.7437 325.3238,258.3307 C324.7158,258.9177 324.3008,259.6427 324.0798,260.5047 C323.9588,261.0397 323.8978,261.5767 323.8978,262.1187 L323.8978,267.5307 L321.6538,267.5307 L321.6538,260.4247 C321.6538,259.4867 321.5188,258.7557 321.2488,258.2337 C320.9778,257.7107 320.4358,257.4497 319.6218,257.4497 C318.7928,257.4497 318.0788,257.7507 317.4818,258.3537 C316.8838,258.9557 316.4678,259.7047 316.2318,260.5957 C316.1258,261.0317 316.0718,261.5387 316.0718,262.1187 L316.0718,267.5307 L313.8278,267.5307 L313.8278,258.1577 C313.8278,257.8147 313.6568,257.6437 313.3158,257.6437 L312.3588,257.6437 Z" id="Fill-29" fill="#FA9339"></path>
            <path d="M336.768,253.417 L338.806,253.417 L338.806,251.06 L336.768,251.06 L336.768,253.417 Z M335.253,257.644 L335.253,255.73 L337.475,255.73 C338.006,255.73 338.388,255.844 338.619,256.073 C338.851,256.302 338.967,256.679 338.967,257.204 L338.967,265.101 C338.967,265.445 339.14,265.616 339.487,265.616 L340.459,265.616 L340.459,267.53 L338.224,267.53 C337.689,267.53 337.305,267.416 337.072,267.187 C336.839,266.958 336.723,266.581 336.723,266.056 L336.723,258.159 C336.723,257.816 336.552,257.644 336.21,257.644 L335.253,257.644 Z" id="Fill-30" fill="#FA9339"></path>
            <path d="M342.4853,257.6437 L342.4853,255.7297 L344.6543,255.7297 C345.6383,255.7297 346.1313,256.1597 346.1313,257.0177 L346.1313,257.4577 L346.0743,258.1357 L346.1313,258.1357 C346.4433,257.4727 346.9713,256.8587 347.7163,256.2927 C348.4633,255.7277 349.4133,255.4447 350.5693,255.4447 C351.9453,255.4447 352.9613,255.8187 353.6193,256.5647 C354.2763,257.3107 354.6053,258.4417 354.6053,259.9567 L354.6053,265.1007 C354.6053,265.4457 354.7783,265.6167 355.1263,265.6167 L356.0973,265.6167 L356.0973,267.5307 L353.8533,267.5307 C353.3223,267.5307 352.9403,267.4157 352.7093,267.1867 C352.4763,266.9577 352.3613,266.5817 352.3613,266.0557 L352.3613,260.4847 C352.3613,259.5447 352.2113,258.8197 351.9103,258.3077 C351.6103,257.7957 351.0223,257.5407 350.1473,257.5407 C349.2423,257.5407 348.4503,257.8097 347.7733,258.3477 C347.0963,258.8857 346.6393,259.5797 346.4043,260.4277 C346.2673,260.8297 346.1993,261.3597 346.1993,262.0187 L346.1993,267.5307 L343.9553,267.5307 L343.9553,258.1577 C343.9553,257.8147 343.7843,257.6437 343.4423,257.6437 L342.4853,257.6437 Z" id="Fill-31" fill="#FA9339"></path>
            <path d="M357.9531,257.6437 L357.9531,255.7297 L360.1751,255.7297 C360.7061,255.7297 361.0921,255.8437 361.3311,256.0737 C361.5691,256.3017 361.6891,256.6647 361.6891,257.1597 L361.6891,262.7757 C361.6891,263.7267 361.8421,264.4557 362.1451,264.9597 C362.4501,265.4657 363.0281,265.7187 363.8811,265.7187 C365.0521,265.7187 365.9881,265.2847 366.6881,264.4137 C367.3881,263.5427 367.7381,262.4927 367.7381,261.2597 L367.7381,255.7297 L369.9811,255.7297 L369.9811,265.1027 C369.9811,265.4457 370.1551,265.6167 370.5031,265.6167 L371.4741,265.6167 L371.4741,267.5307 L369.2991,267.5307 C368.3041,267.5307 367.8071,267.0977 367.8071,266.2317 L367.8071,265.7897 L367.8291,265.1237 L367.7831,265.1237 C367.4861,265.8027 366.9541,266.4207 366.1851,266.9787 C365.4171,267.5367 364.5001,267.8157 363.4351,267.8157 C362.1051,267.8157 361.1071,267.4457 360.4421,266.7067 C359.7781,265.9677 359.4451,264.8297 359.4451,263.2907 L359.4451,258.1597 C359.4451,257.8157 359.2711,257.6437 358.9251,257.6437 L357.9531,257.6437 Z" id="Fill-32" fill="#FA9339"></path>
            <path d="M373.4326,257.5519 L373.4326,255.7299 L375.0386,255.7299 L375.0386,252.4939 L377.2376,252.4939 L377.2376,255.7299 L380.0846,255.7299 L380.0846,257.5519 L377.2376,257.5519 L377.2376,262.9669 C377.2376,263.5279 377.3226,263.9979 377.4936,264.3769 C377.6636,264.7559 377.8896,265.0279 378.1706,265.1909 C378.4526,265.3539 378.7156,265.4649 378.9626,265.5259 C379.2086,265.5859 379.4656,265.6159 379.7316,265.6159 L380.2666,265.5719 L380.2666,267.5759 C380.0616,267.6069 379.7996,267.6209 379.4816,267.6209 C379.1236,267.6209 378.7726,267.5989 378.4276,267.5539 C378.0816,267.5079 377.6936,267.3919 377.2626,267.2059 C376.8316,267.0209 376.4586,266.7759 376.1436,266.4729 C375.8276,266.1689 375.5566,265.7369 375.3306,265.1749 C375.1056,264.6139 374.9936,263.9619 374.9936,263.2179 L374.9936,257.5519 L373.4326,257.5519 Z" id="Fill-33" fill="#FA9339"></path>
            <path d="M385.1191,260.2521 L391.3721,260.2521 C391.3421,259.3101 391.0601,258.5771 390.5291,258.0531 C389.9981,257.5291 389.3521,257.2681 388.5931,257.2681 C387.7041,257.2681 386.9471,257.5251 386.3201,258.0421 C385.6941,258.5581 385.2931,259.2951 385.1191,260.2521 M382.6921,261.6301 C382.6921,259.7771 383.2531,258.2831 384.3731,257.1481 C385.4931,256.0131 386.9071,255.4441 388.6151,255.4441 C390.2221,255.4441 391.4721,255.9671 392.3661,257.0111 C393.2601,258.0551 393.7071,259.3791 393.7071,260.9811 L393.6391,261.9031 L385.0271,261.9031 C385.0881,263.1051 385.5081,264.0561 386.2861,264.7581 C387.0641,265.4601 387.9971,265.8111 389.0831,265.8111 C389.6911,265.8111 390.2821,265.6941 390.8561,265.4611 C391.4311,265.2291 391.8511,265.0041 392.1171,264.7851 L392.5401,264.4481 L393.5241,266.0431 C393.4021,266.1681 393.2161,266.3311 392.9651,266.5331 C392.7141,266.7351 392.1901,266.9991 391.3941,267.3251 C390.5991,267.6511 389.7911,267.8151 388.9691,267.8151 C387.1161,267.8151 385.6061,267.2271 384.4411,266.0501 C383.2751,264.8721 382.6921,263.3991 382.6921,261.6301" id="Fill-34" fill="#FA9339"></path>
            <path d="M396.2724,265.753 L397.4464,264.233 C397.4764,264.279 397.5294,264.343 397.6044,264.422 C397.6804,264.502 397.8354,264.644 398.0704,264.845 C398.3054,265.047 398.5534,265.226 398.8154,265.382 C399.0764,265.538 399.4064,265.679 399.8034,265.804 C400.2014,265.93 400.6004,265.992 401.0024,265.992 C401.5964,265.992 402.0864,265.859 402.4754,265.593 C402.8644,265.326 403.0584,264.953 403.0584,264.474 C403.0584,264.085 402.8364,263.743 402.3954,263.446 C401.9544,263.149 401.4174,262.879 400.7854,262.635 C400.1534,262.392 399.5244,262.121 398.8974,261.824 C398.2714,261.527 397.7374,261.118 397.2954,260.597 C396.8544,260.075 396.6334,259.464 396.6334,258.764 C396.6334,257.691 397.0434,256.87 397.8654,256.3 C398.6854,255.73 399.7314,255.444 401.0024,255.444 C401.9434,255.444 402.8294,255.627 403.6584,255.991 C404.4884,256.357 404.9034,256.937 404.9034,257.734 L404.9034,258.851 L402.8534,258.851 L402.8534,258.27 C402.8534,257.943 402.6614,257.694 402.2764,257.524 C401.8914,257.353 401.4904,257.268 401.0714,257.268 C400.3854,257.268 399.8484,257.387 399.4604,257.627 C399.0724,257.867 398.8774,258.216 398.8774,258.672 C398.8774,259.075 399.0984,259.43 399.5404,259.734 C399.9824,260.039 400.5184,260.303 401.1514,260.527 C401.7834,260.752 402.4124,261.006 403.0394,261.287 C403.6654,261.569 404.1994,261.971 404.6404,262.492 C405.0814,263.014 405.3014,263.64 405.3014,264.371 C405.3014,265.405 404.8954,266.238 404.0834,266.869 C403.2694,267.5 402.2354,267.816 400.9794,267.816 C400.3884,267.816 399.8264,267.745 399.2924,267.607 C398.7574,267.468 398.3174,267.297 397.9684,267.094 C397.6204,266.891 397.3094,266.687 397.0364,266.48 C396.7624,266.274 396.5644,266.102 396.4434,265.967 L396.2724,265.753 Z" id="Fill-35" fill="#FA9339"></path>
            <polygon id="Fill-36" fill="#FA9339" points="407.6816 269.8878 409.1276 265.0808 411.4176 265.0808 409.4356 269.8878"></polygon>
            <path d="M421.4052,257.6437 L421.4052,255.7297 L423.5732,255.7297 C424.5572,255.7297 425.0502,256.1597 425.0502,257.0177 L425.0512,257.4577 L424.9942,258.1357 L425.0512,258.1357 C425.3622,257.4727 425.8912,256.8587 426.6362,256.2927 C427.3822,255.7277 428.3332,255.4447 429.4892,255.4447 C430.8642,255.4447 431.8812,255.8187 432.5382,256.5647 C433.1962,257.3107 433.5242,258.4417 433.5242,259.9567 L433.5242,265.1007 C433.5242,265.4457 433.6982,265.6167 434.0462,265.6167 L435.0162,265.6167 L435.0162,267.5307 L432.7732,267.5307 C432.2412,267.5307 431.8602,267.4157 431.6282,267.1867 C431.3962,266.9577 431.2812,266.5817 431.2812,266.0557 L431.2812,260.4847 C431.2812,259.5447 431.1312,258.8197 430.8302,258.3077 C430.5292,257.7957 429.9422,257.5407 429.0672,257.5407 C428.1622,257.5407 427.3702,257.8097 426.6932,258.3477 C426.0162,258.8857 425.5592,259.5797 425.3242,260.4277 C425.1862,260.8297 425.1182,261.3597 425.1182,262.0187 L425.1182,267.5307 L422.8752,267.5307 L422.8752,258.1577 C422.8752,257.8147 422.7042,257.6437 422.3622,257.6437 L421.4052,257.6437 Z" id="Fill-37" fill="#FA9339"></path>
            <path d="M440.79,258.6271 C440.001,259.4121 439.606,260.4051 439.606,261.6071 C439.606,262.8101 439.999,263.8111 440.784,264.6101 C441.568,265.4101 442.522,265.8111 443.644,265.8111 C444.782,265.8111 445.741,265.4141 446.522,264.6211 C447.304,263.8291 447.694,262.8241 447.694,261.6071 C447.694,260.4051 447.302,259.4121 446.517,258.6271 C445.731,257.8421 444.774,257.4491 443.644,257.4491 C442.53,257.4491 441.578,257.8421 440.79,258.6271 M439.127,266.0241 C437.89,264.8301 437.271,263.3561 437.271,261.6021 C437.271,259.8481 437.888,258.3831 439.119,257.2081 C440.352,256.0321 441.859,255.4441 443.644,255.4441 C445.441,255.4441 446.955,256.0321 448.185,257.2081 C449.414,258.3831 450.029,259.8481 450.029,261.6021 C450.029,263.3561 449.407,264.8301 448.162,266.0241 C446.917,267.2181 445.409,267.8151 443.639,267.8151 C441.868,267.8151 440.364,267.2181 439.127,266.0241" id="Fill-38" fill="#FA9339"></path>
            <path d="M452.2617,257.5519 L452.2617,255.7299 L453.8677,255.7299 L453.8677,252.4939 L456.0667,252.4939 L456.0667,255.7299 L458.9137,255.7299 L458.9137,257.5519 L456.0667,257.5519 L456.0667,262.9669 C456.0667,263.5279 456.1517,263.9979 456.3227,264.3769 C456.4927,264.7559 456.7187,265.0279 456.9997,265.1909 C457.2817,265.3539 457.5447,265.4649 457.7917,265.5259 C458.0377,265.5859 458.2947,265.6159 458.5607,265.6159 L459.0957,265.5719 L459.0957,267.5759 C458.8907,267.6069 458.6287,267.6209 458.3107,267.6209 C457.9527,267.6209 457.6017,267.5989 457.2567,267.5539 C456.9107,267.5079 456.5227,267.3919 456.0917,267.2059 C455.6607,267.0209 455.2877,266.7759 454.9727,266.4729 C454.6567,266.1689 454.3857,265.7369 454.1597,265.1749 C453.9347,264.6139 453.8227,263.9619 453.8227,263.2179 L453.8227,257.5519 L452.2617,257.5519 Z" id="Fill-39" fill="#FA9339"></path>
            <path d="M468.5937,257.6437 L468.5937,255.7297 L470.7617,255.7297 C471.7457,255.7297 472.2387,256.1597 472.2387,257.0177 L472.2387,257.4577 L472.2157,258.1357 L472.2617,258.1357 C472.5587,257.4127 473.0837,256.7837 473.8367,256.2477 C474.5897,255.7127 475.4117,255.4447 476.3017,255.4447 C478.2517,255.4447 479.4277,256.3337 479.8277,258.1137 L479.8727,258.1137 C480.2147,257.3737 480.7727,256.7457 481.5437,256.2247 C482.3157,255.7057 483.1607,255.4447 484.0817,255.4447 C486.6657,255.4447 487.9577,256.9497 487.9577,259.9567 L487.9577,265.1007 C487.9577,265.4457 488.1317,265.6167 488.4787,265.6167 L489.4497,265.6167 L489.4497,267.5307 L487.2057,267.5307 C486.6747,267.5307 486.2927,267.4157 486.0617,267.1867 C485.8287,266.9577 485.7137,266.5817 485.7137,266.0557 L485.7137,260.4507 C485.7137,259.4887 485.5717,258.7477 485.2857,258.2287 C484.9997,257.7087 484.4497,257.4497 483.6367,257.4497 C482.8607,257.4497 482.1677,257.7437 481.5597,258.3307 C480.9497,258.9177 480.5357,259.6427 480.3157,260.5047 C480.1937,261.0397 480.1327,261.5767 480.1327,262.1187 L480.1327,267.5307 L477.8887,267.5307 L477.8887,260.4247 C477.8887,259.4867 477.7527,258.7557 477.4837,258.2337 C477.2127,257.7107 476.6707,257.4497 475.8567,257.4497 C475.0277,257.4497 474.3137,257.7507 473.7167,258.3537 C473.1187,258.9557 472.7027,259.7047 472.4667,260.5957 C472.3607,261.0317 472.3067,261.5387 472.3067,262.1187 L472.3067,267.5307 L470.0637,267.5307 L470.0637,258.1577 C470.0637,257.8147 469.8927,257.6437 469.5507,257.6437 L468.5937,257.6437 Z" id="Fill-40" fill="#FA9339"></path>
            <path d="M495.2226,258.6271 C494.4336,259.4121 494.0386,260.4051 494.0386,261.6071 C494.0386,262.8101 494.4316,263.8111 495.2166,264.6101 C496.0006,265.4101 496.9546,265.8111 498.0766,265.8111 C499.2146,265.8111 500.1736,265.4141 500.9546,264.6211 C501.7366,263.8291 502.1266,262.8241 502.1266,261.6071 C502.1266,260.4051 501.7346,259.4121 500.9496,258.6271 C500.1636,257.8421 499.2066,257.4491 498.0766,257.4491 C496.9626,257.4491 496.0106,257.8421 495.2226,258.6271 M493.5596,266.0241 C492.3226,264.8301 491.7036,263.3561 491.7036,261.6021 C491.7036,259.8481 492.3206,258.3831 493.5516,257.2081 C494.7846,256.0321 496.2916,255.4441 498.0766,255.4441 C499.8736,255.4441 501.3876,256.0321 502.6176,257.2081 C503.8466,258.3831 504.4616,259.8481 504.4616,261.6021 C504.4616,263.3561 503.8396,264.8301 502.5946,266.0241 C501.3496,267.2181 499.8416,267.8151 498.0716,267.8151 C496.3006,267.8151 494.7966,267.2181 493.5596,266.0241" id="Fill-41" fill="#FA9339"></path>
            <path d="M506.6933,257.6437 L506.6933,255.7297 L508.8613,255.7297 C509.8453,255.7297 510.3383,256.1597 510.3383,257.0177 L510.3393,257.4577 L510.2823,258.1357 L510.3393,258.1357 C510.6503,257.4727 511.1793,256.8587 511.9243,256.2927 C512.6703,255.7277 513.6213,255.4447 514.7773,255.4447 C516.1523,255.4447 517.1693,255.8187 517.8263,256.5647 C518.4843,257.3107 518.8123,258.4417 518.8123,259.9567 L518.8123,265.1007 C518.8123,265.4457 518.9863,265.6167 519.3343,265.6167 L520.3043,265.6167 L520.3043,267.5307 L518.0613,267.5307 C517.5293,267.5307 517.1483,267.4157 516.9163,267.1867 C516.6843,266.9577 516.5693,266.5817 516.5693,266.0557 L516.5693,260.4847 C516.5693,259.5447 516.4193,258.8197 516.1183,258.3077 C515.8173,257.7957 515.2303,257.5407 514.3553,257.5407 C513.4503,257.5407 512.6583,257.8097 511.9813,258.3477 C511.3043,258.8857 510.8473,259.5797 510.6123,260.4277 C510.4743,260.8297 510.4063,261.3597 510.4063,262.0187 L510.4063,267.5307 L508.1633,267.5307 L508.1633,258.1577 C508.1633,257.8147 507.9923,257.6437 507.6503,257.6437 L506.6933,257.6437 Z" id="Fill-42" fill="#FA9339"></path>
            <path d="M522.2294,257.5519 L522.2294,255.7299 L523.8354,255.7299 L523.8354,252.4939 L526.0344,252.4939 L526.0344,255.7299 L528.8814,255.7299 L528.8814,257.5519 L526.0344,257.5519 L526.0344,262.9669 C526.0344,263.5279 526.1194,263.9979 526.2904,264.3769 C526.4604,264.7559 526.6864,265.0279 526.9674,265.1909 C527.2494,265.3539 527.5124,265.4649 527.7594,265.5259 C528.0054,265.5859 528.2624,265.6159 528.5284,265.6159 L529.0634,265.5719 L529.0634,267.5759 C528.8584,267.6069 528.5964,267.6209 528.2784,267.6209 C527.9204,267.6209 527.5694,267.5989 527.2244,267.5539 C526.8784,267.5079 526.4904,267.3919 526.0594,267.2059 C525.6284,267.0209 525.2554,266.7759 524.9404,266.4729 C524.6244,266.1689 524.3534,265.7369 524.1274,265.1749 C523.9024,264.6139 523.7904,263.9619 523.7904,263.2179 L523.7904,257.5519 L522.2294,257.5519 Z" id="Fill-43" fill="#FA9339"></path>
            <path d="M531.0908,252.9728 L531.0908,251.0598 L533.3228,251.0598 C533.8558,251.0598 534.2378,251.1778 534.4738,251.4138 C534.7088,251.6498 534.8268,252.0158 534.8268,252.5108 L534.8268,257.1268 L534.7708,258.1108 L534.8268,258.1108 C535.1388,257.4208 535.6798,256.8048 536.4468,256.2608 C537.2158,255.7168 538.1408,255.4448 539.2208,255.4448 C541.9108,255.4448 543.2558,256.9598 543.2558,259.9898 L543.2558,265.1048 C543.2558,265.4458 543.4298,265.6168 543.7778,265.6168 L544.7478,265.6168 L544.7478,267.5308 L542.5138,267.5308 C541.9788,267.5308 541.5948,267.4158 541.3618,267.1868 C541.1288,266.9578 541.0128,266.5808 541.0128,266.0558 L541.0128,260.5138 C541.0128,259.5648 540.8568,258.8318 540.5448,258.3158 C540.2328,257.7988 539.6428,257.5408 538.7758,257.5408 C537.8858,257.5408 537.1018,257.8098 536.4248,258.3478 C535.7478,258.8858 535.2828,259.5858 535.0318,260.4508 C534.8958,260.8518 534.8268,261.3738 534.8268,262.0188 L534.8268,267.5308 L532.5828,267.5308 L532.5828,253.4868 C532.5828,253.1448 532.4098,252.9728 532.0628,252.9728 L531.0908,252.9728 Z" id="Fill-44" fill="#FA9339"></path>
            <path d="M546.7441,265.753 L547.9181,264.233 C547.9481,264.279 548.0011,264.343 548.0761,264.422 C548.1521,264.502 548.3071,264.644 548.5421,264.845 C548.7771,265.047 549.0251,265.226 549.2871,265.382 C549.5481,265.538 549.8781,265.679 550.2751,265.804 C550.6731,265.93 551.0721,265.992 551.4741,265.992 C552.0681,265.992 552.5581,265.859 552.9471,265.593 C553.3361,265.326 553.5301,264.953 553.5301,264.474 C553.5301,264.085 553.3081,263.743 552.8671,263.446 C552.4261,263.149 551.8891,262.879 551.2571,262.635 C550.6251,262.392 549.9961,262.121 549.3691,261.824 C548.7431,261.527 548.2091,261.118 547.7671,260.597 C547.3261,260.075 547.1051,259.464 547.1051,258.764 C547.1051,257.691 547.5151,256.87 548.3371,256.3 C549.1571,255.73 550.2031,255.444 551.4741,255.444 C552.4151,255.444 553.3011,255.627 554.1301,255.991 C554.9601,256.357 555.3751,256.937 555.3751,257.734 L555.3751,258.851 L553.3251,258.851 L553.3251,258.27 C553.3251,257.943 553.1331,257.694 552.7481,257.524 C552.3631,257.353 551.9621,257.268 551.5431,257.268 C550.8571,257.268 550.3201,257.387 549.9321,257.627 C549.5441,257.867 549.3491,258.216 549.3491,258.672 C549.3491,259.075 549.5701,259.43 550.0121,259.734 C550.4541,260.039 550.9901,260.303 551.6231,260.527 C552.2551,260.752 552.8841,261.006 553.5111,261.287 C554.1371,261.569 554.6711,261.971 555.1121,262.492 C555.5531,263.014 555.7731,263.64 555.7731,264.371 C555.7731,265.405 555.3671,266.238 554.5551,266.869 C553.7411,267.5 552.7071,267.816 551.4511,267.816 C550.8601,267.816 550.2981,267.745 549.7641,267.607 C549.2291,267.468 548.7891,267.297 548.4401,267.094 C548.0921,266.891 547.7811,266.687 547.5081,266.48 C547.2341,266.274 547.0361,266.102 546.9151,265.967 L546.7441,265.753 Z" id="Fill-45" fill="#FA9339"></path>
            <path d="M560.158,267.53 L562.493,267.53 L562.493,265.332 L560.158,265.332 L560.158,267.53 Z M560.135,251.06 L562.493,251.06 L562.356,263.066 L560.296,263.066 L560.135,251.06 Z" id="Fill-46" fill="#FA9339"></path>
            <path d="M104.6181,224.107 C104.6181,227.143 105.4151,229.761 107.0101,231.962 C108.6041,234.164 110.8331,235.264 113.6971,235.264 C116.2811,235.264 118.4511,234.256 120.2091,232.241 C121.9671,230.224 122.8461,227.49 122.8461,224.037 C122.8461,220.632 122.0131,217.88 120.3491,215.783 C118.6841,213.686 116.4901,212.637 113.7661,212.637 C111.1821,212.637 109.0121,213.599 107.2541,215.522 C105.4961,217.445 104.6181,220.307 104.6181,224.107 L104.6181,224.107 Z M91.3841,198.914 L91.3841,191.267 L100.0431,191.267 C103.2791,191.267 104.8971,192.893 104.8971,196.144 L104.8971,206.776 L104.7581,209.864 L104.8971,209.864 C104.9901,209.722 105.1181,209.544 105.2821,209.331 C105.4441,209.118 105.8511,208.71 106.5041,208.105 C107.1551,207.501 107.8711,206.967 108.6511,206.505 C109.4301,206.043 110.4671,205.628 111.7591,205.261 C113.0511,204.894 114.4071,204.711 115.8271,204.711 C120.7181,204.711 124.6231,206.482 127.5441,210.025 C130.4641,213.568 131.9251,218.192 131.9251,223.899 C131.9251,229.599 130.3711,234.193 127.2651,237.68 C124.1581,241.168 120.1601,242.912 115.2681,242.912 C113.0341,242.912 111.0081,242.483 109.1921,241.626 C107.3761,240.767 106.1311,239.91 105.4561,239.052 L104.4091,237.765 L104.2341,237.765 C104.3261,238.438 104.3851,239.248 104.4091,240.197 L104.4091,242.039 L95.8181,242.039 L95.8181,200.488 C95.8181,199.439 95.2951,198.914 94.2471,198.914 L91.3841,198.914 Z" id="Fill-48" fill="#7E2F17"></path>
            <path d="M146.2065,219.0968 L162.0245,219.0968 C161.9775,216.9558 161.2965,215.1918 159.9815,213.8068 C158.6665,212.4218 157.0545,211.7288 155.1455,211.7288 C152.8175,211.7288 150.8795,212.3878 149.3315,213.7018 C147.7835,215.0178 146.7415,216.8158 146.2065,219.0968 M136.7085,223.8108 C136.7085,218.1778 138.4195,213.5858 141.8415,210.0358 C145.2635,206.4858 149.7215,204.7108 155.2155,204.7108 C160.2665,204.7108 164.2245,206.3468 167.0875,209.6168 C169.9515,212.8878 171.3825,217.0258 171.3825,222.0308 L171.1715,225.3828 L145.9655,225.3828 C146.2905,228.5128 147.4775,230.9408 149.5265,232.6708 C151.5755,234.3998 154.0315,235.2638 156.8945,235.2638 C158.6175,235.2638 160.3345,234.9298 162.0455,234.2588 C163.7565,233.5888 165.0185,232.9118 165.8335,232.2288 L167.1255,231.1708 L170.9605,237.4698 C170.8205,237.6068 170.6055,237.8078 170.3145,238.0718 C170.0235,238.3368 169.3895,238.7728 168.4115,239.3818 C167.4335,239.9898 166.4215,240.5298 165.3735,240.9998 C164.3265,241.4708 162.9765,241.9068 161.3235,242.3088 C159.6705,242.7108 157.9955,242.9118 156.2965,242.9118 C150.4305,242.9118 145.6995,241.0608 142.1025,237.3598 C138.5065,233.6578 136.7085,229.1418 136.7085,223.8108" id="Fill-50" fill="#7E2F17"></path>
            <path d="M185.5952,231.109 C185.5952,232.409 186.0732,233.531 187.0292,234.475 C187.9852,235.421 189.3382,235.893 191.0872,235.893 C193.4222,235.893 195.3952,234.874 197.0062,232.835 C198.6172,230.797 199.4232,228.593 199.4232,226.226 L199.4232,225.382 L197.8472,225.382 C189.6782,225.382 185.5952,227.292 185.5952,231.109 M176.5162,231.528 C176.5162,229.703 176.8932,228.07 177.6492,226.63 C178.4042,225.191 179.4622,224.044 180.8222,223.189 C182.1812,222.335 183.5992,221.604 185.0752,220.995 C186.5512,220.386 188.1782,219.965 189.9562,219.731 C191.7352,219.497 193.2342,219.333 194.4542,219.238 C195.6742,219.145 196.9002,219.097 198.1322,219.097 L199.2832,219.097 L199.2832,218.785 C199.2832,216.226 198.7452,214.41 197.6722,213.338 C196.5972,212.265 194.8822,211.729 192.5232,211.729 C191.3792,211.729 190.2822,211.903 189.2312,212.253 C188.1802,212.602 187.6552,213.231 187.6552,214.138 L187.6552,216.094 L179.2052,216.094 L179.2052,212.218 C179.2052,210.635 179.6942,209.297 180.6732,208.202 C181.6522,207.109 182.9452,206.334 184.5532,205.88 C186.1612,205.426 187.5952,205.118 188.8532,204.955 C190.1112,204.792 191.3582,204.711 192.5942,204.711 C203.1992,204.711 208.5022,209.53 208.5022,219.168 L208.5022,232.82 C208.5022,233.868 209.0092,234.391 210.0232,234.391 L212.7972,234.391 L212.7972,242.039 L204.6312,242.039 C203.0492,242.039 201.8802,241.676 201.1242,240.952 C200.3672,240.226 199.9902,239.265 199.9902,238.068 L200.0612,236.514 L199.9192,236.514 L199.5692,237.241 C199.4282,237.517 199.0492,238.025 198.4292,238.762 C197.8102,239.5 197.1162,240.151 196.3452,240.716 C195.5742,241.281 194.5172,241.788 193.1742,242.237 C191.8302,242.687 190.3992,242.912 188.8812,242.912 C185.4772,242.912 182.5652,241.887 180.1452,239.838 C177.7252,237.791 176.5162,235.02 176.5162,231.528" id="Fill-52" fill="#7E2F17"></path>
            <path d="M214.3335,213.2306 L214.3335,205.5836 L219.5365,205.5836 C221.0025,205.5836 222.1435,205.8456 222.9585,206.3686 C223.7725,206.8926 224.4245,207.7706 224.9145,209.0026 L231.7575,228.1586 L233.1195,233.3566 L233.2595,233.3566 C233.6315,231.3106 234.0625,229.5776 234.5515,228.1586 L241.4305,209.0026 C241.8955,207.7706 242.5365,206.8926 243.3515,206.3686 C244.1655,205.8456 245.3065,205.5836 246.7725,205.5836 L251.6615,205.5836 L251.6615,213.2306 L250.7885,213.2306 C249.7875,213.2306 249.1245,213.6626 248.7985,214.5256 L238.3575,242.0386 L227.5325,242.0386 L217.0915,214.5256 C216.7655,213.6626 216.1025,213.2306 215.1015,213.2306 L214.3335,213.2306 Z" id="Fill-54" fill="#7E2F17"></path>
            <path d="M263.6039,219.0968 L279.4219,219.0968 C279.3749,216.9558 278.6939,215.1918 277.3789,213.8068 C276.0639,212.4218 274.4519,211.7288 272.5429,211.7288 C270.2149,211.7288 268.2769,212.3878 266.7289,213.7018 C265.1809,215.0178 264.1389,216.8158 263.6039,219.0968 M254.1059,223.8108 C254.1059,218.1778 255.8169,213.5858 259.2389,210.0358 C262.6609,206.4858 267.1189,204.7108 272.6129,204.7108 C277.6639,204.7108 281.6219,206.3468 284.4849,209.6168 C287.3489,212.8878 288.7799,217.0258 288.7799,222.0308 L288.5689,225.3828 L263.3629,225.3828 C263.6879,228.5128 264.8749,230.9408 266.9239,232.6708 C268.9729,234.3998 271.4289,235.2638 274.2919,235.2638 C276.0149,235.2638 277.7319,234.9298 279.4429,234.2588 C281.1539,233.5888 282.4159,232.9118 283.2309,232.2288 L284.5229,231.1708 L288.3579,237.4698 C288.2179,237.6068 288.0029,237.8078 287.7119,238.0718 C287.4209,238.3368 286.7869,238.7728 285.8089,239.3818 C284.8309,239.9898 283.8189,240.5298 282.7709,240.9998 C281.7239,241.4708 280.3739,241.9068 278.7209,242.3088 C277.0679,242.7108 275.3929,242.9118 273.6939,242.9118 C267.8279,242.9118 263.0969,241.0608 259.4999,237.3598 C255.9039,233.6578 254.1059,229.1418 254.1059,223.8108" id="Fill-56" fill="#7E2F17"></path>
            <path d="M293.0405,213.2306 L293.0405,205.5836 L301.3815,205.5836 C304.6415,205.5836 306.2725,207.0166 306.2725,209.8806 L306.2725,211.9946 L306.1355,214.2116 L306.2725,214.2116 C307.1355,211.5476 308.6025,209.3566 310.6745,207.6386 C312.7465,205.9196 315.1445,205.0596 317.8675,205.0596 L319.5095,205.1956 L319.5095,213.9286 C318.8805,213.8356 318.1355,213.7896 317.2745,213.7896 C315.1325,213.7896 313.1305,214.4396 311.2685,215.7416 C309.4055,217.0436 308.1025,218.9606 307.3575,221.4936 C306.8215,223.3706 306.5545,225.3636 306.5545,227.4746 L306.5545,242.0386 L297.4755,242.0386 L297.4755,214.8056 C297.4755,213.7556 296.9515,213.2306 295.9035,213.2306 L293.0405,213.2306 Z" id="Fill-58" fill="#7E2F17"></path>
            <path d="M335.4316,224.107 C335.4316,227.143 336.2286,229.761 337.8236,231.962 C339.4176,234.164 341.6476,235.264 344.5106,235.264 C347.0946,235.264 349.2646,234.256 351.0236,232.241 C352.7806,230.224 353.6596,227.49 353.6596,224.037 C353.6596,220.632 352.8276,217.88 351.1626,215.783 C349.4976,213.686 347.3036,212.637 344.5796,212.637 C341.9956,212.637 339.8256,213.599 338.0686,215.522 C336.3106,217.445 335.4316,220.307 335.4316,224.107 L335.4316,224.107 Z M322.1976,198.914 L322.1976,191.267 L330.8576,191.267 C334.0926,191.267 335.7106,192.893 335.7106,196.144 L335.7106,206.776 L335.5716,209.864 L335.7106,209.864 C335.8036,209.722 335.9316,209.544 336.0956,209.331 C336.2576,209.118 336.6646,208.71 337.3176,208.105 C337.9686,207.501 338.6846,206.967 339.4646,206.505 C340.2436,206.043 341.2806,205.628 342.5726,205.261 C343.8646,204.894 345.2206,204.711 346.6406,204.711 C351.5316,204.711 355.4376,206.482 358.3576,210.025 C361.2776,213.568 362.7386,218.192 362.7386,223.899 C362.7386,229.599 361.1846,234.193 358.0786,237.68 C354.9716,241.168 350.9736,242.912 346.0816,242.912 C343.8476,242.912 341.8226,242.483 340.0056,241.626 C338.1906,240.767 336.9446,239.91 336.2696,239.052 L335.2226,237.765 L335.0476,237.765 C335.1406,238.438 335.1996,239.248 335.2226,240.197 L335.2226,242.039 L326.6316,242.039 L326.6316,200.488 C326.6316,199.439 326.1086,198.914 325.0606,198.914 L322.1976,198.914 Z" id="Fill-60" fill="#3E0000"></path>
            <path d="M366.579,213.2306 L366.579,205.5836 L375.239,205.5836 C376.915,205.5836 378.132,205.9586 378.889,206.7086 C379.644,207.4586 380.022,208.6636 380.022,210.3246 L380.022,227.1396 C380.022,229.5676 380.44,231.4186 381.277,232.6916 C382.113,233.9646 383.576,234.6016 385.667,234.6016 C388.803,234.6016 391.288,233.4076 393.123,231.0226 C394.958,228.6356 395.876,225.7316 395.876,222.3096 L395.876,205.5836 L404.955,205.5836 L404.955,232.8196 C404.955,233.8676 405.478,234.3916 406.526,234.3916 L409.39,234.3916 L409.39,242.0386 L401.009,242.0386 C397.819,242.0386 396.225,240.6766 396.225,237.9526 L396.225,236.9756 L396.295,235.2996 L396.155,235.2996 C395.203,237.3946 393.605,239.1876 391.364,240.6766 C389.123,242.1666 386.526,242.9116 383.577,242.9116 C375.155,242.9116 370.944,238.2726 370.944,228.9956 L370.944,214.8066 C370.944,213.7556 370.429,213.2306 369.397,213.2306 L366.579,213.2306 Z" id="Fill-62" fill="#3E0000"></path>
            <path d="M417.387,199.578 L424.824,199.578 L424.824,191.267 L417.387,191.267 L417.387,199.578 Z M412.602,213.231 L412.602,205.583 L421.263,205.583 C422.938,205.583 424.155,205.97 424.911,206.743 C425.668,207.515 426.047,208.732 426.047,210.393 L426.047,232.815 C426.047,233.866 426.562,234.391 427.593,234.391 L430.411,234.391 L430.411,242.039 L421.751,242.039 C420.075,242.039 418.858,241.655 418.102,240.886 C417.346,240.118 416.968,238.884 416.968,237.185 L416.968,214.807 C416.968,213.756 416.452,213.231 415.421,213.231 L412.602,213.231 Z" id="Fill-64" fill="#3E0000"></path>
            <path d="M433.414,198.9137 L433.414,191.2667 L442.074,191.2667 C445.31,191.2667 446.928,192.8707 446.928,196.0767 L446.928,232.8167 C446.928,233.8667 447.451,234.3917 448.499,234.3917 L451.293,234.3917 L451.293,242.0387 L442.702,242.0387 C440.979,242.0387 439.74,241.6547 438.983,240.8867 C438.226,240.1177 437.849,238.8847 437.849,237.1847 L437.849,200.4887 C437.849,199.4387 437.325,198.9137 436.277,198.9137 L433.414,198.9137 Z" id="Fill-66" fill="#3E0000"></path>
            <path d="M464.2822,223.8785 C464.2822,227.2905 465.1152,230.0415 466.7832,232.1315 C468.4512,234.2205 470.6262,235.2645 473.3082,235.2645 C475.8972,235.2645 478.0722,234.3075 479.8332,232.3925 C481.5942,230.4775 482.4742,227.6165 482.4742,223.8095 C482.4742,220.7785 481.6872,218.1595 480.1132,215.9505 C478.5392,213.7415 476.3172,212.6365 473.4492,212.6365 C470.8122,212.6365 468.6262,213.6435 466.8882,215.6555 C465.1502,217.6685 464.2822,220.4095 464.2822,223.8785 M455.2032,223.8785 C455.2032,218.1315 456.7392,213.5005 459.8112,209.9835 C462.8852,206.4685 466.8352,204.7105 471.6642,204.7105 C476.3052,204.7105 479.6872,206.0495 481.8102,208.7275 L482.1952,209.2245 L482.3352,209.2245 C482.2882,208.5855 482.2652,207.8505 482.2652,207.0215 L482.2652,200.5045 C482.2652,199.4435 481.7412,198.9135 480.6942,198.9135 L477.8302,198.9135 L477.8302,191.2665 L486.4902,191.2665 C489.7252,191.2665 491.3442,192.8705 491.3442,196.0765 L491.3442,232.8295 C491.3442,233.8705 491.8682,234.3915 492.9152,234.3915 L495.7092,234.3915 L495.7092,242.0385 L487.3282,242.0385 C484.3252,242.0385 482.8242,240.8115 482.8242,238.3565 L482.8242,237.0015 L482.6842,237.0015 C482.5912,237.1415 482.4632,237.3495 482.3002,237.6265 C482.1362,237.9045 481.7282,238.3795 481.0752,239.0525 C480.4222,239.7245 479.7052,240.3205 478.9242,240.8425 C478.1422,241.3635 477.0692,241.8395 475.7052,242.2685 C474.3402,242.6965 472.8652,242.9115 471.2792,242.9115 C466.4052,242.9115 462.5082,241.1545 459.5862,237.6405 C456.6642,234.1265 455.2032,229.5385 455.2032,223.8785" id="Fill-67" fill="#3E0000"></path>
            <path d="M509.2226,219.0968 L525.0406,219.0968 C524.9936,216.9558 524.3136,215.1918 522.9976,213.8068 C521.6826,212.4218 520.0706,211.7288 518.1616,211.7288 C515.8336,211.7288 513.8966,212.3878 512.3486,213.7018 C510.7996,215.0178 509.7576,216.8158 509.2226,219.0968 M499.7246,223.8108 C499.7246,218.1778 501.4366,213.5858 504.8586,210.0358 C508.2806,206.4858 512.7386,204.7108 518.2326,204.7108 C523.2836,204.7108 527.2416,206.3468 530.1046,209.6168 C532.9676,212.8878 534.3996,217.0258 534.3996,222.0308 L534.1886,225.3828 L508.9816,225.3828 C509.3076,228.5128 510.4946,230.9408 512.5436,232.6708 C514.5916,234.3998 517.0476,235.2638 519.9106,235.2638 C521.6336,235.2638 523.3506,234.9298 525.0616,234.2588 C526.7736,233.5888 528.0346,232.9118 528.8506,232.2288 L530.1426,231.1708 L533.9776,237.4698 C533.8376,237.6068 533.6216,237.8078 533.3306,238.0718 C533.0396,238.3368 532.4066,238.7728 531.4276,239.3818 C530.4506,239.9898 529.4386,240.5298 528.3906,240.9998 C527.3426,241.4708 525.9936,241.9068 524.3396,242.3088 C522.6876,242.7108 521.0116,242.9118 519.3126,242.9118 C513.4466,242.9118 508.7156,241.0608 505.1186,237.3598 C501.5226,233.6578 499.7246,229.1418 499.7246,223.8108" id="Fill-68" fill="#3E0000"></path>
            <path d="M538.6601,213.2306 L538.6601,205.5836 L547.0001,205.5836 C550.2611,205.5836 551.8911,207.0166 551.8911,209.8806 L551.8911,211.9946 L551.7541,214.2116 L551.8911,214.2116 C552.7551,211.5476 554.2221,209.3566 556.2941,207.6386 C558.3651,205.9196 560.7641,205.0596 563.4871,205.0596 L565.1281,205.1956 L565.1281,213.9286 C564.5001,213.8356 563.7551,213.7896 562.8931,213.7896 C560.7511,213.7896 558.7501,214.4396 556.8881,215.7416 C555.0241,217.0436 553.7221,218.9606 552.9761,221.4936 C552.4401,223.3706 552.1731,225.3636 552.1731,227.4746 L552.1731,242.0386 L543.0951,242.0386 L543.0951,214.8056 C543.0951,213.7556 542.5701,213.2306 541.5231,213.2306 L538.6601,213.2306 Z" id="Fill-69" fill="#3E0000"></path>
            <path d="M407.8222,171.4625 C407.8222,177.4955 378.1422,182.3855 341.5312,182.3855 C304.9192,182.3855 275.2392,177.4955 275.2392,171.4625 C275.2392,165.4295 304.9192,160.5395 341.5312,160.5395 C378.1422,160.5395 407.8222,165.4295 407.8222,171.4625" id="Fill-70" fill="#ECE1DA"></path>
            <path d="M321.4184,169.7325 C335.1754,169.3835 352.6234,176.4195 363.8684,168.6365 C366.4084,166.8785 365.0424,165.6555 364.8684,165.8395 C354.2164,177.1695 339.7354,167.7305 319.2864,166.7085 C319.1484,166.7015 321.4054,169.5695 321.4184,169.7325" id="Fill-71" fill="#3E0000"></path>
            <path d="M301.8227,96.1148 C293.5937,86.8708 280.6547,87.8738 274.3767,91.4698 C265.6537,96.4678 249.3807,114.7758 259.6517,124.3988 C266.4237,130.7428 267.8207,135.0598 277.6877,140.9768 C283.0327,144.1828 289.5617,151.7798 296.9477,156.0368 C300.7277,158.2158 306.6057,161.3688 307.0987,165.6578 C307.9107,172.7228 317.7787,174.1348 326.5627,173.6568 C328.2807,173.5628 323.5787,170.0308 325.1397,169.8198 C327.7577,169.4678 336.3757,171.6778 338.0237,171.8838 C346.2697,172.9168 352.3957,173.4258 356.8747,173.4068 C366.3887,173.3648 369.5207,168.8308 371.0497,167.2598 C375.9947,162.1748 371.0977,159.4758 369.5457,156.7718 C368.9897,155.8048 370.3977,154.0418 370.6917,153.2808 C373.1067,147.0118 374.6557,144.7968 378.4647,139.1978 C381.4537,134.8028 380.7027,140.6478 383.2807,133.3498 C389.6797,115.2298 384.4987,127.4668 385.3507,118.6328 C385.6557,115.4598 396.5547,112.0268 387.8877,97.1558 C385.0487,92.2848 380.1157,79.8458 374.7277,73.5258 C369.1547,66.9908 371.8457,72.5098 366.8537,71.0118 C327.5577,59.2288 348.8977,75.4228 322.9967,68.6328 C310.9447,65.4728 309.6827,64.6688 307.3497,80.7978 C306.2377,88.4858 306.1007,85.1748 301.8227,96.1148" id="Fill-72" fill="#AA7B55"></path>
            <path d="M348.3056,151.7081 C355.3336,152.7911 364.4056,145.3461 374.6666,126.9761 C370.7356,175.8821 306.2426,174.2151 293.6896,135.5421 C292.1236,130.7191 295.0306,112.2411 300.2516,101.6131 C314.7906,72.0141 299.4566,100.0881 296.1156,101.5771 C293.8316,102.5961 290.4866,101.6591 289.8836,103.0281 C280.9176,123.3841 276.5196,134.6031 283.4176,143.9251 C289.7686,152.5091 300.6376,155.8251 301.9836,156.7951 C302.3586,157.0641 305.1206,168.7611 310.6406,171.0341 C314.5026,172.6251 319.4096,174.1371 322.9316,173.2991 C324.5206,172.9221 324.6616,170.3431 326.3306,170.0761 C330.2576,169.4471 335.7576,170.5011 336.1906,170.5311 C339.2276,170.7391 351.8266,174.9041 359.9136,173.2251 C369.7296,171.1871 375.0776,163.1051 376.4106,161.7401 C378.1736,159.9361 364.8516,156.6661 366.7296,154.5721 C375.7576,144.5121 384.0606,131.2251 380.1596,123.9661 C380.0376,123.7411 391.0256,116.9321 391.1686,108.4601 C391.3186,99.7051 387.5006,125.0401 363.9576,119.7611 C356.6056,118.1121 357.0026,134.8961 353.0416,134.7231 C326.6116,133.5651 347.4596,148.1281 348.3056,151.7081" id="Fill-73" fill="#8C5D40"></path>
            <path d="M353.4648,110.0177 C353.5208,111.8127 339.2908,116.5977 335.6968,119.3737 C332.2448,122.0427 329.9848,120.9687 329.7778,127.4797 C329.7448,128.5087 333.1988,138.4857 333.9928,140.1247 C337.4568,147.2667 340.7628,151.5287 349.5438,150.9187 C352.0598,150.7457 354.7928,148.7677 356.7998,147.3717 C359.5318,145.4697 367.7618,130.2277 370.8378,125.9867 C376.6498,117.9747 368.6078,119.2437 361.9028,112.4107 C360.9198,111.4097 354.8888,110.0177 353.4648,110.0177" id="Fill-74" fill="#FFFFFF"></path>
            <path d="M353.4648,110.0177 C353.5208,111.0797 341.5298,117.5397 337.9388,119.1827 C334.4858,120.7607 331.1998,116.7667 329.7778,120.3517 C327.2928,126.6117 337.7278,141.9997 338.5218,142.9697 C337.2138,138.7337 334.5398,132.6097 336.5278,129.0037 C338.5308,125.3697 349.9918,120.1427 349.9398,123.8877 C349.8848,127.6887 348.9228,134.6427 347.7318,144.4557 C350.2468,144.3537 355.9118,125.9147 357.4028,124.3447 C359.7058,121.9177 364.4758,124.5727 365.0198,126.6207 C365.5638,128.6697 363.1778,134.5537 357.1938,143.9927 C359.4538,142.1487 369.6878,132.3927 371.1718,127.2477 C373.5018,119.1727 365.9958,114.8797 361.9028,112.4107 C360.9218,111.8197 354.8888,110.0177 353.4648,110.0177" id="Fill-75" fill="#ECE1DA"></path>
            <path d="M309.2675,66.5499 C306.8365,66.7069 309.3015,60.1959 311.8645,57.8989 C321.6165,49.1579 322.0335,51.5559 331.5315,48.2519 C335.4495,46.8889 346.8285,49.2779 350.4425,51.1119 C351.7975,51.7999 354.5265,59.1409 358.2755,60.8419 C362.9855,62.9789 366.2415,69.1509 358.2565,70.3489 C349.8335,71.6119 336.7125,72.9519 329.6555,67.3159 C324.8865,63.5079 327.7135,70.9959 321.2375,68.1699 C321.2255,68.1649 309.2885,66.5489 309.2675,66.5499" id="Fill-76" fill="#FA9339"></path>
            <path d="M330.4716,67.1935 C329.1646,67.2775 334.6786,65.4025 336.0556,64.1695 C341.2976,59.4705 341.9506,62.2525 347.0576,60.4765 C349.1626,59.7445 357.4676,61.7225 359.4116,62.7075 C360.1396,63.0765 360.2276,64.2355 362.2426,65.1495 C364.7746,66.2975 366.5736,67.9255 362.2806,68.5685 C357.7516,69.2475 349.4156,72.2615 345.6206,69.2315 C343.0586,67.1845 344.8916,69.8545 341.0946,69.6915 C339.5976,69.6275 316.5166,66.6365 330.4716,67.1935" id="Fill-77" fill="#8B4519"></path>
            <path d="M285.2162,91.9933 C283.0532,89.5063 262.2382,121.7503 260.3732,123.5733 C256.3882,127.4693 262.2732,129.4733 269.1242,135.1593 C281.1332,145.1273 278.8952,144.1703 287.5142,148.1953 C287.5572,148.0763 287.5552,148.0343 286.7972,147.2873 C286.3722,146.8683 289.4862,138.4023 288.6912,137.6283 C287.8952,136.8553 286.4252,141.9503 284.5832,145.0473 C282.9322,143.4593 280.3792,141.0303 280.5082,140.7153 C283.1742,134.1923 290.4602,118.0613 289.3582,117.3753 C287.8912,116.4643 280.0872,134.8693 277.4292,137.8623 C276.4842,138.9283 273.9572,137.4843 273.1562,136.6083 C272.6602,136.0653 271.8852,135.2663 272.4202,134.1073 C276.6562,124.9183 293.6392,95.5183 292.2772,94.5713 C291.0242,93.6993 276.0652,121.2573 269.8422,129.4003 C267.6812,132.2273 264.9342,127.5133 263.6122,126.6043 C265.4892,123.9423 285.7862,92.6493 285.2162,91.9933" id="Fill-78" fill="#3E0000"></path>
            <path d="M348.2099,102.922 C348.8079,103.647 349.3589,104.211 349.9079,104.766 C349.3279,103.218 349.2929,101.445 349.8219,99.877 C347.9919,100.528 347.0749,101.547 348.2099,102.922" id="Fill-79" fill="#3E0000"></path>
            <path d="M372.7392,89.0665 C372.9632,89.0665 373.1762,89.1055 373.3752,89.1755 C372.6962,88.5305 371.7792,88.1345 370.7692,88.1345 C368.6802,88.1345 366.9892,89.8275 366.9892,91.9145 C366.9892,94.0035 368.6802,95.6955 370.7692,95.6955 C372.8562,95.6955 374.5502,94.0035 374.5502,91.9145 C374.5502,91.7935 374.5432,91.6745 374.5332,91.5565 C374.2822,92.3055 373.5732,92.8465 372.7392,92.8465 C371.6952,92.8465 370.8492,92.0005 370.8492,90.9565 C370.8492,89.9125 371.6952,89.0665 372.7392,89.0665" id="Fill-80" fill="#3E0000"></path>
            <path d="M323.2773,167.2706 C322.7713,166.8956 321.7833,166.3616 321.6003,166.5056 C321.3333,166.7146 323.0553,169.0906 322.2553,170.8726 C321.4543,172.6546 311.1113,169.6066 310.5043,168.3306 C309.8553,166.9666 311.7923,162.5776 311.3963,161.2086 C310.9993,159.8396 307.8673,158.2366 305.9623,157.2046 C290.4103,148.7756 259.5603,123.9726 261.0713,115.0436 C262.4943,106.6366 276.1903,91.1246 279.3473,90.3826 C282.5043,89.6396 294.7703,91.6726 295.0603,90.7706 C295.3803,89.7716 278.6693,83.2156 275.1883,84.2326 C271.8983,85.1916 250.5073,107.0836 249.0933,115.1526 C245.7603,134.1946 295.9903,158.6886 302.6223,162.5756 C304.5833,163.7256 301.1243,168.2666 302.6183,170.7706 C304.5783,174.0526 328.1993,176.4236 328.6653,174.3346 C329.0453,172.6326 325.5013,168.9226 323.2773,167.2706" id="Fill-81" fill="#3E0000"></path>
            <path d="M351.8769,149.0133 C350.9599,149.4803 349.3379,149.6593 347.7009,149.6273 C351.9589,138.9563 356.4079,126.9653 358.5489,112.5303 C361.6879,116.2943 366.4589,121.0753 370.1579,123.1413 C368.0069,130.6343 356.0849,146.8713 351.8769,149.0133 M345.7949,149.4953 C344.5539,149.3463 343.4789,149.0833 342.9309,148.7463 C339.8499,146.8513 333.3899,134.2833 331.8149,125.7783 C337.3809,124.8213 348.0919,118.1713 353.2049,112.9863 C352.1059,124.7213 348.9009,137.5493 345.7949,149.4953 M345.0219,66.3453 C340.2309,66.4363 335.4279,66.7333 331.7229,66.9693 C339.7169,60.6533 358.8119,59.5863 360.8079,66.5173 C356.9059,66.5003 351.1899,66.2283 345.0219,66.3453 M323.9589,66.2283 C322.0169,64.0313 318.5009,59.0883 316.3479,59.0383 C315.4879,59.0183 313.4809,60.2543 311.1599,62.0013 C312.2129,54.4703 322.6789,50.2323 332.4409,49.4033 C334.8149,51.2723 336.8259,53.4043 339.4909,59.2493 C334.9529,59.4643 331.3099,59.8903 330.0709,60.5613 C327.8679,61.7573 325.6149,63.9663 323.9589,66.2283 M348.0479,52.3273 C349.2839,53.4073 351.5569,56.3973 353.0599,59.1703 C350.2479,59.0853 347.2759,59.0613 344.4269,59.1013 C342.2569,54.5153 339.7729,51.5903 337.1059,49.2693 C341.7859,49.4113 345.8669,50.4253 348.0479,52.3273 M377.0839,73.2233 C377.0479,70.9073 380.8829,68.6223 380.5629,65.7043 C380.3469,63.7313 372.0549,59.9033 370.1809,60.6803 C368.7139,61.2883 367.8329,63.9073 366.5869,65.3363 C367.0799,63.4203 367.2689,61.5243 366.6759,60.7983 C366.1769,60.1883 362.9269,59.7183 358.5459,59.4273 C356.9399,55.7823 353.3389,51.8263 350.9219,49.6393 C348.4219,47.3793 342.0329,46.7413 334.8449,47.4503 L334.8439,47.4503 C334.1089,46.8993 333.8209,46.7953 332.0289,47.0273 C330.3599,47.2433 330.2379,47.6553 330.6109,48.0103 C320.0839,49.7513 309.1439,54.1263 306.7409,60.3463 C306.3059,61.4753 306.0009,63.5433 306.1159,66.1593 C302.8699,69.0543 300.1339,71.9293 300.1029,72.8273 C300.0349,74.8303 303.5849,77.6833 303.8469,79.1773 C304.1079,80.6703 297.4559,90.8583 293.4599,104.9083 C288.5469,122.1773 291.4759,146.0223 306.8569,145.8953 C315.1899,145.8263 313.1319,133.1383 307.4709,133.3873 C305.7949,133.4613 306.7549,143.7533 302.9439,142.0603 C296.1889,139.0593 295.2629,121.1723 300.1529,108.7643 C310.0099,83.7603 313.8119,82.4213 313.5089,80.6333 C313.2059,78.8453 309.3409,75.7453 309.2469,74.5353 C309.1379,73.1323 314.7639,67.7503 316.4579,68.3413 C317.9439,68.8583 320.3779,74.5503 322.4699,74.9213 C324.3229,75.2513 359.6629,69.0343 368.1669,72.8783 C376.6719,76.7223 389.2349,104.9633 388.2879,107.8923 C387.3409,110.8223 379.4359,115.8823 372.2989,115.5453 C367.3149,115.3093 360.8019,110.7763 358.0159,108.3523 C358.0839,108.3113 358.1479,108.2523 358.2139,108.2083 C357.4809,108.5053 356.6519,108.6913 355.7019,108.6913 C354.8109,108.6913 354.0329,108.5183 353.3319,108.2543 C349.2999,111.6273 342.1699,116.1863 335.8269,116.6023 C327.5309,117.1453 319.3369,111.5903 317.9939,109.1803 C316.4719,106.4533 322.1049,96.0413 321.3129,95.3903 C319.7139,94.0803 305.2269,109.5553 306.8309,114.9813 C308.0459,119.0953 317.1059,123.2593 324.4329,125.0213 C326.2889,131.8013 334.4979,148.2743 337.2759,150.0853 C340.2409,152.0153 348.9389,152.7363 352.5959,151.2323 C356.7729,149.5143 370.3129,135.8103 374.4209,124.1703 C375.7309,124.0833 377.2929,123.7653 378.9649,123.2773 C377.4519,146.2373 355.8709,162.1633 356.6919,163.6843 C357.5289,165.2323 369.8809,161.5003 371.3639,162.9883 C372.7359,164.3643 366.7459,170.9553 367.1109,171.1103 C367.4759,171.2633 381.9399,161.6713 380.8509,157.7863 C380.2119,155.5133 371.2749,156.6853 370.7569,155.7713 C370.2619,154.8993 386.1759,143.7453 389.8749,118.3913 C392.4769,116.7703 394.4909,115.0403 395.1729,113.5323 C397.2669,108.8993 377.0939,73.8253 377.0839,73.2233" id="Fill-82" fill="#3E0000"></path>
            <path d="M338.9531,89.065 C339.1771,89.065 339.3911,89.104 339.5901,89.175 C338.9121,88.529 337.9941,88.133 336.9841,88.133 C334.8951,88.133 333.2031,89.826 333.2031,91.915 C333.2031,94.002 334.8951,95.695 336.9841,95.695 C339.0721,95.695 340.7651,94.002 340.7651,91.915 C340.7651,91.793 340.7591,91.673 340.7471,91.555 C340.5401,92.176 340.0191,92.653 339.3711,92.799 C339.2361,92.829 339.0981,92.845 338.9531,92.845 C337.9101,92.845 337.0641,92 337.0641,90.955 C337.0641,90.39 337.3111,89.882 337.7051,89.536 C338.0381,89.242 338.4751,89.065 338.9531,89.065" id="Fill-83" fill="#3E0000"></path>
            <path d="M370.8212,95.6358 C372.8782,95.6358 374.5552,93.9578 374.5552,91.9018 C374.5552,89.8448 372.8782,88.1668 370.8212,88.1668 C368.7642,88.1668 367.0862,89.8448 367.0862,91.9018 C367.0862,93.9578 368.7642,95.6358 370.8212,95.6358" id="Fill-84" fill="#3E0000"></path>
            <path d="M370.8212,94.0841 C372.0242,94.0841 373.0042,93.1041 373.0042,91.9011 C373.0042,90.6991 372.0242,89.7181 370.8212,89.7181 C369.6192,89.7181 368.6382,90.6991 368.6382,91.9011 C368.6382,93.1041 369.6192,94.0841 370.8212,94.0841" id="Fill-85" fill="#000000"></path>
            <path d="M372.7451,91.7535 C373.3511,91.7535 373.8471,91.2585 373.8471,90.6515 C373.8471,90.0455 373.3511,89.5505 372.7451,89.5505 C372.1391,89.5505 371.6431,90.0455 371.6431,90.6515 C371.6431,91.2585 372.1391,91.7535 372.7451,91.7535" id="Fill-86" fill="#FFFFFF"></path>
            <path d="M337.0576,95.6495 C339.1146,95.6495 340.7916,93.9715 340.7916,91.9155 C340.7916,89.8585 339.1146,88.1805 337.0576,88.1805 C335.0006,88.1805 333.3226,89.8585 333.3226,91.9155 C333.3226,93.9715 335.0006,95.6495 337.0576,95.6495" id="Fill-87" fill="#3E0000"></path>
            <path d="M337.0585,94.0978 C338.2605,94.0978 339.2405,93.1178 339.2405,91.9148 C339.2405,90.7128 338.2605,89.7318 337.0585,89.7318 C335.8555,89.7318 334.8745,90.7128 334.8745,91.9148 C334.8745,93.1178 335.8555,94.0978 337.0585,94.0978" id="Fill-88" fill="#000000"></path>
            <path d="M338.9814,91.7667 C339.5874,91.7667 340.0834,91.2727 340.0834,90.6657 C340.0834,90.0597 339.5874,89.5637 338.9814,89.5637 C338.3754,89.5637 337.8794,90.0597 337.8794,90.6657 C337.8794,91.2727 338.3754,91.7667 338.9814,91.7667" id="Fill-89" fill="#FFFFFF"></path>
            <path d="M353.3661,108.2491 C353.0761,108.0601 354.3971,106.3211 354.6821,105.0541 C355.0581,103.3771 353.6471,103.0481 352.6501,103.2581 C350.7901,103.6481 352.0881,105.7461 352.4991,106.5331 C352.8361,107.1801 352.6031,107.5821 351.5371,106.4791 C351.0011,105.9241 350.5431,105.4081 350.0621,104.9231 C349.4681,104.3231 348.8711,103.7201 348.2221,102.9341 C344.2481,98.1151 365.4061,97.6491 363.1151,102.2231 C362.2761,103.8971 361.2241,105.1011 360.0371,106.4751 C358.2641,108.5251 360.2521,104.9521 360.2661,104.1431 C360.2841,103.1591 359.7071,103.2911 359.3141,103.6641 C358.3531,104.5771 360.2941,108.6291 356.0801,108.9211 C355.0901,108.9901 354.0651,108.7831 353.3661,108.2491" id="Fill-90" fill="#000000"></path>
            <path d="M281.6406,90.2159 C289.3286,90.7259 294.6356,92.3749 302.2626,95.0029 C299.8046,92.1699 296.0596,90.6689 289.1926,87.7389 C286.2646,86.4899 283.2946,88.4969 281.6406,90.2159" id="Fill-91" fill="#3E0000"></path>
            <path d="M293.3251,137.691 C291.7461,140.583 260.9841,115.254 258.7731,113.874 C254.0461,110.922 260.4351,105.034 265.9051,98.015 C275.4991,85.708 270.1841,93.065 277.7401,87.288 C277.7941,87.374 289.0191,97.262 288.6961,97.654 C288.2441,98.201 276.2661,89.558 275.5541,90.334 C274.3161,91.685 273.0951,93.061 273.3461,93.327 C277.9001,98.152 291.0371,107.15 289.9151,108.382 C288.3741,110.073 275.5601,99.085 271.8271,96.459 C268.6071,94.193 267.1801,99.986 267.7491,100.738 C273.8531,108.806 295.8861,124.419 294.7611,125.633 C293.7241,126.751 274.4721,112.431 266.1421,105.977 C263.3301,103.799 262.3851,109.048 261.2871,110.22 C263.6911,112.417 293.7411,136.93 293.3251,137.691" id="Fill-92" fill="#3E0000"></path>
            <text id="TM" font-family="LucidaGrande, Lucida Grande" font-size="8.2781" font-weight="normal" fill="#3E0000">
                <tspan x="391.1729" y="149.227097">TM</tspan>
            </text>
        </g>
    </g>
</svg>